# This file uses meters as units for non-parametric coordinates.

mtllib Canned food store.mtl
g default
v -2717.643944 511.951543 55.086410
v -2293.098290 511.951543 55.086410
v -2717.643944 680.850743 55.086410
v -2293.098290 680.850743 55.086410
v -2717.643944 680.850743 35.086410
v -2293.098290 680.850743 35.086410
v -2717.643944 511.951543 35.086410
v -2293.098290 511.951543 35.086410
vt 0.075386 0.330938
vt 0.925295 0.330937
vt 0.925295 0.669063
vt 0.075386 0.669062
vt 0.965334 0.669063
vt 0.075386 0.709100
vt 0.035348 0.330939
vt 0.925295 0.290899
vt 0.965334 0.330937
vt 0.075386 0.290900
vt 0.925295 0.709101
vt 0.035348 0.669061
vn 0.000000 0.000000 1.000000
vn 0.000000 0.000000 1.000000
vn 0.000000 0.000000 1.000000
vn 0.000000 0.000000 1.000000
vn 0.000000 1.000000 0.000000
vn 0.000000 1.000000 0.000000
vn 0.000000 1.000000 0.000000
vn 0.000000 1.000000 0.000000
vn 0.000000 -1.000000 0.000000
vn 0.000000 -1.000000 0.000000
vn 0.000000 -1.000000 0.000000
vn 0.000000 -1.000000 0.000000
vn 1.000000 0.000000 0.000000
vn 1.000000 0.000000 0.000000
vn 1.000000 0.000000 0.000000
vn 1.000000 0.000000 0.000000
vn -1.000000 0.000000 0.000000
vn -1.000000 0.000000 0.000000
vn -1.000000 0.000000 0.000000
vn -1.000000 0.000000 0.000000
s off
g pCube38
usemtl Canned_Shop_Sign_BoardSG
f 1/1/1 2/2/2 4/3/3 3/4/4
f 3/4/5 4/3/6 6/11/7 5/6/8
f 7/10/9 8/8/10 2/2/11 1/1/12
f 2/2/13 8/9/14 6/5/15 4/3/16
f 7/7/17 1/1/18 3/4/19 5/12/20
