# This file uses meters as units for non-parametric coordinates.

mtllib crab cooler.mtl
g default
v -3806.180908 118.823615 -148.789137
v -3806.180908 118.823615 -464.084867
v -3806.180908 134.745858 -148.789137
v -3806.180908 134.745858 -464.084867
v -3676.789834 69.837975 -464.084867
v -3672.156569 81.392736 -464.084867
v -3676.789834 69.837975 -148.789137
v -3672.156569 81.392736 -148.789137
v -3669.009220 -2.609892 -469.971093
v -3669.009220 79.641756 -469.971093
v -3669.009220 79.641756 -142.904042
v -3669.009220 -2.609892 -142.904042
v -3810.450662 -2.609892 -142.904042
v -3810.450662 137.190574 -142.904042
v -3810.450662 137.190574 -469.971093
v -3810.450662 -2.609892 -469.971093
vt 0.950596 0.053691
vt 0.951243 0.236435
vt 0.291491 0.236437
vt 0.292137 0.053692
vt 0.029428 0.442359
vt 0.241058 0.441916
vt 0.241155 0.949492
vt 0.029428 0.949484
vt 0.928360 0.295286
vt 0.928101 0.557651
vt 0.680254 0.438966
vt 0.680152 0.295624
vt 0.300895 0.520847
vt 0.300640 0.297912
vt 0.548895 0.298250
vt 0.548610 0.431172
vt 0.891576 0.659688
vt 0.324285 0.659688
vt 0.324284 0.637568
vt 0.891580 0.637568
vt 0.324218 0.918347
vt 0.891979 0.918347
vt 0.892023 0.941997
vt 0.324210 0.941997
vt 0.916221 0.659680
vt 0.916568 0.918389
vt 0.299566 0.918389
vt 0.299739 0.659680
vt 0.938651 0.252812
vt 0.304082 0.252809
vt 0.263789 0.452879
vt 0.263689 0.938840
vt 0.921009 0.581390
vt 0.687270 0.462709
vt 0.542715 0.454917
vt 0.306816 0.544587
vn 1.000000 0.000000 -0.000000
vn 1.000000 0.000000 -0.000000
vn 1.000000 0.000000 -0.000000
vn 1.000000 0.000000 -0.000000
vn -1.000000 0.000000 0.000000
vn -1.000000 0.000000 0.000000
vn -1.000000 0.000000 0.000000
vn -1.000000 0.000000 0.000000
vn -0.000000 0.000000 -1.000000
vn -0.000000 0.000000 -1.000000
vn -0.000000 0.000000 -1.000000
vn -0.000000 0.000000 -1.000000
vn 0.000000 0.000000 1.000000
vn 0.000000 0.000000 1.000000
vn 0.000000 0.000000 1.000000
vn 0.000000 0.000000 1.000000
vn -0.928162 0.372177 0.000000
vn -0.928162 0.372177 0.000000
vn -0.928162 0.372177 0.000000
vn -0.928162 0.372177 0.000000
vn 1.000000 0.000000 -0.000000
vn 1.000000 0.000000 -0.000000
vn 1.000000 0.000000 -0.000000
vn 1.000000 0.000000 -0.000000
vn 0.000000 0.000039 1.000000
vn 0.000000 0.000039 1.000000
vn 0.000000 0.000039 1.000000
vn 0.000000 0.000039 1.000000
vn 0.354062 0.935222 -0.000000
vn 0.354062 0.935222 -0.000000
vn 0.354062 0.935222 -0.000000
vn 0.354062 0.935222 -0.000000
vn -0.000000 0.000000 -1.000000
vn -0.000000 0.000000 -1.000000
vn -0.000000 0.000000 -1.000000
vn -0.000000 0.000000 -1.000000
vn 0.486162 0.873869 -0.000000
vn 0.486162 0.873869 -0.000000
vn 0.486162 0.873869 -0.000000
vn 0.486162 0.873869 -0.000000
vn 0.496881 0.867819 -0.000000
vn 0.496881 0.867819 -0.000000
vn 0.496881 0.867819 -0.000000
vn 0.496881 0.867819 -0.000000
vn 0.373403 0.927473 0.019055
vn 0.373403 0.927473 0.019055
vn 0.373403 0.927473 0.019055
vn 0.373403 0.927473 0.019055
vn 0.373412 0.927470 -0.019059
vn 0.373412 0.927470 -0.019059
vn 0.373412 0.927470 -0.019059
vn 0.373412 0.927470 -0.019059
s off
g pasted__pasted__Veggie_Shop_Crate_Table3 pasted__pasted__Veggie_Shop_Crate_Table2 pasted__group group1
usemtl pasted__pasted__StingrayPBS2SG
f 9/1/1 10/2/2 11/3/3 12/4/4
f 13/5/5 14/6/6 15/7/7 16/8/8
f 16/9/9 15/10/10 10/11/11 9/12/12
f 14/13/13 13/14/14 12/15/15 11/16/16
f 5/17/17 7/18/18 8/19/19 6/20/20
f 1/21/21 2/22/22 4/23/23 3/24/24
f 2/22/25 5/17/26 6/25/27 4/26/28
f 5/17/29 2/22/30 1/21/31 7/18/32
f 3/27/33 8/28/34 7/18/35 1/21/36
f 6/29/37 8/30/38 11/3/39 10/2/40
f 3/31/41 4/32/42 15/7/43 14/6/44
f 4/33/45 6/34/46 10/11/47 15/10/48
f 8/35/49 3/36/50 14/13/51 11/16/52
