# This file uses meters as units for non-parametric coordinates.

mtllib extracity.mtl
g default
v -6777.563965 53.614349 -1022.043091
v -5216.079590 53.614349 -1022.043091
v -6777.563965 2233.333740 -1022.043091
v -5216.079590 2233.333740 -1022.043091
v -6777.563965 2233.333740 -1776.334106
v -5216.079590 2233.333740 -1776.334106
v -6777.563965 53.614349 -1776.334106
v -5216.079590 53.614349 -1776.334106
v -6346.027832 53.614105 -2442.344971
v -4784.543457 53.614105 -2442.344971
v -6346.027832 918.519897 -2442.344971
v -4784.543457 918.519897 -2442.344971
v -6346.027832 918.519897 -3196.635986
v -4784.543457 918.519897 -3196.635986
v -4784.543457 53.614105 -3196.635986
v -4514.928711 53.614349 -1022.043091
v -2953.444336 53.614349 -1022.043091
v -4514.928711 1261.616699 -1022.043091
v -2953.444336 1261.616699 -1022.043091
v -4514.928711 1261.616699 -1776.334106
v -2953.444336 1261.616699 -1776.334106
v -4514.928711 53.614349 -1776.334106
v -2953.444336 53.614349 -1776.334106
v -2622.705566 53.614349 -2442.344971
v -1061.221191 53.614349 -2442.344971
v -2622.705566 681.230347 -2442.344971
v -1061.221191 681.230347 -2442.344971
v -2622.705566 681.230347 -3196.635986
v -1061.221191 681.230347 -3196.635986
v -2622.705566 53.614349 -3196.635986
v -2118.308594 53.614349 -1022.043091
v -556.824341 53.614349 -1022.043091
v -2118.308594 1261.616699 -1022.043091
v -556.824341 1261.616699 -1022.043091
v -2118.308594 1261.616699 -1776.334106
v -556.824341 1261.616699 -1776.334106
v -2118.308594 53.614349 -1776.334106
v -556.824341 53.614349 -1776.334106
vt 0.851440 0.290292
vt 0.770498 0.287474
vt 0.738871 0.807157
vt 0.776074 0.807157
vt 0.776074 0.858567
vt 0.738871 0.858567
vt 0.880404 0.552495
vt 0.922220 0.552495
vt 0.880404 0.594312
vt 0.922220 0.594312
vt 0.764093 0.523383
vt 0.847456 0.527924
vt 0.883713 0.276655
vt 0.965935 0.279361
vt 0.962558 0.521168
vt 0.749152 0.903960
vt 0.786356 0.903960
vt 0.786356 0.955370
vt 0.749152 0.955370
vt 0.877433 0.516404
vt 0.592927 0.591133
vt 0.489302 0.587479
vt 0.483844 0.706586
vt 0.792779 0.807157
vt 0.829983 0.807157
vt 0.829983 0.858567
vt 0.792779 0.858567
vt 0.805298 0.537140
vt 0.849373 0.537140
vt 0.849373 0.581215
vt 0.805298 0.581215
vt 0.588601 0.711050
vt 0.978893 0.616817
vt 0.879583 0.613164
vt 0.875122 0.771750
vt 0.975766 0.776345
vt 0.837863 0.903960
vt 0.875066 0.903960
vt 0.875066 0.955370
vt 0.837863 0.955370
vt 0.605980 0.586390
vt 0.681878 0.589086
vt 0.679712 0.710949
vt 0.602652 0.707436
vt 0.849881 0.807157
vt 0.887084 0.807157
vt 0.887084 0.858567
vt 0.849881 0.858567
vt 0.947010 0.559351
vt 0.986496 0.559351
vt 0.986496 0.598837
vt 0.947010 0.598837
vt 0.719803 0.613504
vt 0.863013 0.618804
vt 0.858755 0.738698
vt 0.714597 0.732719
vt 0.025407 0.076877
vt 0.237825 0.076877
vt 0.237825 0.923123
vt 0.025407 0.923123
vt 0.256164 0.025318
vt 0.468582 0.025318
vt 0.468582 0.361105
vt 0.256164 0.361105
vt 0.259691 0.523419
vt 0.472110 0.523419
vt 0.472110 0.992410
vt 0.259691 0.992410
vt 0.522548 0.291980
vt 0.734966 0.291980
vt 0.734966 0.535643
vt 0.522548 0.535643
vt 0.500920 0.251821
vt 0.499556 0.039407
vt 0.968536 0.036395
vt 0.969901 0.248809
vt 0.581197 0.816292
vt 0.490523 0.812825
vt 0.486339 0.957829
vt 0.578038 0.962021
vt 0.600896 0.745580
vt 0.694730 0.749084
vt 0.691653 0.899845
vt 0.596636 0.895505
vn 0.000000 0.000000 1.000000
vn 0.000000 0.000000 1.000000
vn 0.000000 0.000000 1.000000
vn 0.000000 0.000000 1.000000
vn 0.000000 1.000000 0.000000
vn 0.000000 1.000000 0.000000
vn 0.000000 1.000000 0.000000
vn 0.000000 1.000000 0.000000
vn 0.000000 -1.000000 0.000000
vn 0.000000 -1.000000 0.000000
vn 0.000000 -1.000000 0.000000
vn 0.000000 -1.000000 0.000000
vn 1.000000 0.000000 0.000000
vn 1.000000 0.000000 0.000000
vn 1.000000 0.000000 0.000000
vn 1.000000 0.000000 0.000000
vn -1.000000 0.000000 0.000000
vn -1.000000 0.000000 0.000000
vn -1.000000 0.000000 0.000000
vn -1.000000 0.000000 0.000000
vn 0.000000 0.000000 1.000000
vn 0.000000 0.000000 1.000000
vn 0.000000 0.000000 1.000000
vn 0.000000 0.000000 1.000000
vn 0.000000 1.000000 0.000000
vn 0.000000 1.000000 0.000000
vn 0.000000 1.000000 0.000000
vn 0.000000 1.000000 0.000000
vn 1.000000 0.000000 0.000000
vn 1.000000 0.000000 0.000000
vn 1.000000 0.000000 0.000000
vn 1.000000 0.000000 0.000000
vn 0.000000 0.000000 1.000000
vn 0.000000 0.000000 1.000000
vn 0.000000 0.000000 1.000000
vn 0.000000 0.000000 1.000000
vn 0.000000 1.000000 0.000000
vn 0.000000 1.000000 0.000000
vn 0.000000 1.000000 0.000000
vn 0.000000 1.000000 0.000000
vn 0.000000 -1.000000 0.000000
vn 0.000000 -1.000000 0.000000
vn 0.000000 -1.000000 0.000000
vn 0.000000 -1.000000 0.000000
vn 1.000000 0.000000 0.000000
vn 1.000000 0.000000 0.000000
vn 1.000000 0.000000 0.000000
vn 1.000000 0.000000 0.000000
vn -1.000000 0.000000 0.000000
vn -1.000000 0.000000 0.000000
vn -1.000000 0.000000 0.000000
vn -1.000000 0.000000 0.000000
vn 0.000000 0.000000 1.000000
vn 0.000000 0.000000 1.000000
vn 0.000000 0.000000 1.000000
vn 0.000000 0.000000 1.000000
vn 0.000000 1.000000 0.000000
vn 0.000000 1.000000 0.000000
vn 0.000000 1.000000 0.000000
vn 0.000000 1.000000 0.000000
vn -1.000000 0.000000 0.000000
vn -1.000000 0.000000 0.000000
vn -1.000000 0.000000 0.000000
vn -1.000000 0.000000 0.000000
vn 0.000000 0.000000 1.000000
vn 0.000000 0.000000 1.000000
vn 0.000000 0.000000 1.000000
vn 0.000000 0.000000 1.000000
vn 0.000000 1.000000 0.000000
vn 0.000000 1.000000 0.000000
vn 0.000000 1.000000 0.000000
vn 0.000000 1.000000 0.000000
vn 0.000000 -1.000000 0.000000
vn 0.000000 -1.000000 0.000000
vn 0.000000 -1.000000 0.000000
vn 0.000000 -1.000000 0.000000
vn 1.000000 0.000000 0.000000
vn 1.000000 0.000000 0.000000
vn 1.000000 0.000000 0.000000
vn 1.000000 0.000000 0.000000
vn -1.000000 0.000000 0.000000
vn -1.000000 0.000000 0.000000
vn -1.000000 0.000000 0.000000
vn -1.000000 0.000000 0.000000
s off
g extra_buildings
usemtl StingrayPBS33SG
f 1/57/1 2/58/2 4/59/3 3/60/4
f 3/3/5 4/4/6 6/5/7 5/6/8
f 7/7/9 8/8/10 2/10/11 1/9/12
f 2/1/13 8/2/14 6/11/15 4/12/16
f 7/13/17 1/14/18 3/15/19 5/20/20
f 9/61/21 10/62/22 12/63/23 11/64/24
f 11/16/25 12/17/26 14/18/27 13/19/28
f 10/21/29 15/22/30 14/23/31 12/32/32
f 16/65/33 17/66/34 19/67/35 18/68/36
f 18/24/37 19/25/38 21/26/39 20/27/40
f 22/28/41 23/29/42 17/30/43 16/31/44
f 17/33/45 23/34/46 21/35/47 19/36/48
f 22/41/49 16/42/50 18/43/51 20/44/52
f 24/69/53 25/70/54 27/71/55 26/72/56
f 26/37/57 27/38/58 29/39/59 28/40/60
f 30/53/61 24/54/62 26/55/63 28/56/64
f 31/73/65 32/74/66 34/75/67 33/76/68
f 33/45/69 34/46/70 36/47/71 35/48/72
f 37/49/73 38/50/74 32/51/75 31/52/76
f 32/77/77 38/78/78 36/79/79 34/80/80
f 37/81/81 31/82/82 33/83/83 35/84/84
