# This file uses meters as units for non-parametric coordinates.

mtllib Pavement ( Restaurant ).mtl
g default
v -6776.956173 -16.405983 2797.230634
v -1275.268147 -16.405983 2797.230634
v -6776.959861 -16.405983 393.595737
v -1275.265381 -16.405983 393.595737
vt 0.378914 0.998006
vt 0.378914 0.001993
vt 0.743553 0.001992
vt 0.743553 0.998007
vn 0.000000 1.000000 0.000000
vn 0.000000 1.000000 0.000000
vn 0.000000 1.000000 0.000000
vn 0.000000 1.000000 0.000000
s off
g Road2 pPlane52
usemtl StingrayPBS31SG
f 1/1/1 2/2/2 4/3/3 3/4/4
