# This file uses centimeters as units for non-parametric coordinates.

mtllib Wetfloorsign.mtl
g default
v 0.500000 0.015337 -0.565535
v 0.500000 0.015337 -0.695836
v 0.500000 2.287713 -0.123817
v 0.500000 2.287713 -0.254119
v -0.500000 2.287713 -0.123817
v -0.500000 2.287713 -0.254119
v -0.500000 0.015337 -0.565535
v -0.500000 0.015337 -0.695836
v 0.500000 2.241445 -0.132811
v 0.500000 2.241445 -0.263112
v -0.500000 2.241445 -0.263112
v -0.500000 2.241445 -0.132811
v 0.500000 0.099267 -0.549220
v 0.500000 0.099267 -0.679522
v -0.500000 0.099268 -0.679522
v -0.500000 0.099268 -0.549220
v -0.375000 2.241445 -0.132811
v -0.375000 0.099268 -0.549220
v -0.375000 0.015337 -0.565535
v -0.375000 0.015337 -0.695836
v -0.375000 0.099268 -0.679522
v -0.375000 2.241445 -0.263112
v -0.375000 2.287713 -0.254119
v -0.375000 2.287713 -0.123817
v 0.375000 2.287713 -0.123817
v 0.375000 2.287713 -0.254119
v 0.375000 2.241445 -0.263112
v 0.375000 0.099267 -0.679522
v 0.375000 0.015337 -0.695836
v 0.375000 0.015337 -0.565535
v 0.375000 0.099267 -0.549220
v 0.375000 2.241445 -0.132811
v 0.500000 0.015337 0.565535
v 0.500000 0.015337 0.695836
v 0.500000 2.287713 0.123817
v 0.500000 2.287713 0.254119
v -0.500000 2.287713 0.123817
v -0.500000 2.287713 0.254119
v -0.500000 0.015337 0.565535
v -0.500000 0.015337 0.695836
v 0.500000 2.241445 0.132811
v 0.500000 2.241445 0.263112
v -0.500000 2.241445 0.263112
v -0.500000 2.241445 0.132811
v 0.500000 0.099267 0.549220
v 0.500000 0.099267 0.679522
v -0.500000 0.099268 0.679522
v -0.500000 0.099268 0.549220
v -0.375000 2.241445 0.132811
v -0.375000 0.099268 0.549220
v -0.375000 0.015337 0.565535
v -0.375000 0.015337 0.695836
v -0.375000 0.099268 0.679522
v -0.375000 2.241445 0.263112
v -0.375000 2.287713 0.254119
v -0.375000 2.287713 0.123817
v 0.375000 2.287713 0.123817
v 0.375000 2.287713 0.254119
v 0.375000 2.241445 0.263112
v 0.375000 0.099267 0.679522
v 0.375000 0.015337 0.695836
v 0.375000 0.015337 0.565535
v 0.375000 0.099267 0.549220
v 0.375000 2.241445 0.132811
vt 0.045025 0.083520
vt 0.012066 0.090011
vt 0.012036 0.077860
vt 0.044995 0.071368
vt 0.334668 0.786616
vt 0.334652 0.835062
vt 0.055889 0.835073
vt 0.055887 0.786636
vt 0.074533 0.379694
vt 0.099901 0.369525
vt 0.105350 0.377975
vt 0.080072 0.388056
vt 0.724269 0.970539
vt 0.724285 0.983890
vt 0.511804 0.984127
vt 0.512020 0.970663
vt 0.046427 0.646105
vt 0.013469 0.652597
vt 0.723680 0.353039
vt 0.511495 0.353269
vt 0.349060 0.755254
vt 0.328606 0.772956
vt 0.955846 0.527807
vt 0.806524 0.525214
vt 0.814072 0.090735
vt 0.963393 0.093328
vt 0.046482 0.668147
vt 0.013523 0.674639
vt 0.367357 0.775361
vt 0.350247 0.784066
vt 0.789185 0.090302
vt 0.781637 0.524782
vt 0.789479 0.073279
vt 0.814366 0.073713
vt 0.063846 0.528499
vt 0.087024 0.527530
vt 0.087815 0.549802
vt 0.064580 0.550678
vt 0.723624 0.328824
vt 0.759016 0.328771
vt 0.759050 0.353000
vt 0.759642 0.970505
vt 0.759662 0.983841
vt 0.381097 0.786623
vt 0.381090 0.835088
vt 0.009427 0.835065
vt 0.009426 0.786632
vt 0.476881 0.970549
vt 0.477823 0.982487
vt 0.476135 0.353312
vt 0.476077 0.329116
vt 0.511451 0.329057
vt 0.069111 0.713577
vt 0.092044 0.713328
vt 0.092272 0.735323
vt 0.069449 0.735486
vt 0.963688 0.076306
vt 0.988575 0.076738
vt 0.988279 0.093761
vt 0.980732 0.528240
vt 0.062231 0.565693
vt 0.085425 0.565006
vt 0.089138 0.698399
vt 0.065983 0.698954
vt 0.463903 0.780475
vt 0.469649 0.789968
vt 0.440856 0.800552
vt 0.435111 0.791060
vt 0.334624 0.975530
vt 0.055889 0.975536
vt 0.055889 0.927112
vt 0.334637 0.927106
vt 0.141471 0.333782
vt 0.146565 0.341689
vt 0.127372 0.359543
vt 0.122494 0.351512
vt 0.079125 0.051976
vt 0.079123 0.282229
vt 0.064602 0.282066
vt 0.064663 0.051972
vt 0.197879 0.340946
vt 0.169087 0.351530
vt 0.749025 0.051830
vt 0.749116 0.282060
vt 0.378893 0.714717
vt 0.359559 0.732637
vt 0.957884 0.540658
vt 0.954730 0.963219
vt 0.809501 0.962136
vt 0.812659 0.539571
vt 0.421971 0.352648
vt 0.465939 0.353352
vt 0.463961 0.477439
vt 0.419991 0.476768
vt 0.435610 0.898483
vt 0.433736 0.971956
vt 0.419940 0.974275
vt 0.421950 0.895465
vt 0.410149 0.891033
vt 0.408783 0.975606
vt 0.394098 0.972505
vt 0.395371 0.893658
vt 0.187456 0.323726
vt 0.158664 0.334310
vt 0.389173 0.729971
vt 0.368405 0.748865
vt 0.463622 0.498138
vt 0.419669 0.497437
vt 0.785297 0.961956
vt 0.788455 0.539390
vt 0.785173 0.978510
vt 0.809379 0.978692
vt 0.139394 0.526359
vt 0.138195 0.549515
vt 0.114047 0.548277
vt 0.115246 0.525104
vt 0.749021 0.013460
vt 0.775253 0.013472
vt 0.775257 0.051818
vt 0.079115 0.013605
vt 0.064647 0.013619
vt 0.381136 0.927114
vt 0.381109 0.975522
vt 0.009428 0.927106
vt 0.009428 0.975534
vt 0.079181 0.320778
vt 0.064529 0.321886
vt 0.749141 0.320433
vt 0.775359 0.320414
vt 0.775336 0.282054
vt 0.129396 0.719624
vt 0.128202 0.742780
vt 0.104049 0.741535
vt 0.105252 0.718363
vt 0.978932 0.963402
vt 0.978809 0.979958
vt 0.954604 0.979777
vt 0.982090 0.540837
vt 0.422306 0.331971
vt 0.466262 0.332667
vt 0.140414 0.565232
vt 0.116267 0.563982
vt 0.109076 0.702970
vt 0.133221 0.704220
vn 1.000000 0.000000 0.000000
vn 1.000000 0.000000 0.000000
vn 1.000000 0.000000 0.000000
vn 1.000000 0.000000 0.000000
vn 0.000000 1.000000 0.000000
vn 0.000000 1.000000 0.000000
vn 0.000000 1.000000 0.000000
vn 0.000000 1.000000 0.000000
vn -1.000000 0.000000 -0.000000
vn -1.000000 0.000000 -0.000000
vn -1.000000 0.000000 -0.000000
vn -1.000000 0.000000 -0.000000
vn 0.000000 0.190814 -0.981626
vn 0.000000 0.190815 -0.981626
vn 0.000000 0.190815 -0.981626
vn 0.000000 0.190814 -0.981626
vn 1.000000 0.000000 0.000000
vn 1.000000 0.000000 0.000000
vn 1.000000 0.000000 0.000000
vn 1.000000 0.000000 0.000000
vn 0.000000 0.190814 -0.981626
vn 0.000000 0.190814 -0.981626
vn 0.000000 0.190814 -0.981626
vn 0.000000 0.190814 -0.981626
vn -1.000000 0.000000 -0.000000
vn -1.000000 0.000000 -0.000000
vn -1.000000 0.000000 -0.000000
vn -1.000000 0.000000 -0.000000
vn -0.000000 -0.190814 0.981626
vn -0.000000 -0.190814 0.981626
vn -0.000000 -0.190814 0.981626
vn -0.000000 -0.190814 0.981626
vn 1.000000 0.000000 0.000000
vn 1.000000 0.000000 0.000000
vn 1.000000 0.000000 0.000000
vn 1.000000 0.000000 0.000000
vn -1.000000 0.000000 -0.000000
vn -1.000000 0.000000 -0.000000
vn -1.000000 0.000000 -0.000000
vn -1.000000 0.000000 -0.000000
vn -0.000000 -0.190814 0.981626
vn -0.000000 -0.190814 0.981626
vn -0.000000 -0.190814 0.981626
vn -0.000000 -0.190814 0.981626
vn -0.000000 -0.190814 0.981626
vn -0.000000 -0.190814 0.981626
vn -0.000000 -0.190814 0.981626
vn -0.000000 -0.190814 0.981626
vn 0.000000 -1.000000 0.000000
vn 0.000000 -1.000000 0.000000
vn 0.000000 -1.000000 0.000000
vn 0.000000 -1.000000 0.000000
vn 0.000000 0.190814 -0.981626
vn 0.000000 0.190812 -0.981627
vn 0.000000 0.190812 -0.981627
vn 0.000000 0.190814 -0.981626
vn 0.000000 0.190814 -0.981626
vn 0.000000 0.190814 -0.981626
vn 0.000000 0.190814 -0.981626
vn 0.000000 0.190814 -0.981626
vn 0.000000 0.190815 -0.981626
vn 0.000000 0.190814 -0.981626
vn 0.000000 0.190814 -0.981626
vn 0.000000 0.190815 -0.981626
vn 0.000000 1.000000 0.000000
vn 0.000000 1.000000 0.000000
vn 0.000000 1.000000 0.000000
vn 0.000000 1.000000 0.000000
vn 0.000000 1.000000 0.000000
vn 0.000000 1.000000 0.000000
vn 0.000000 1.000000 0.000000
vn 0.000000 1.000000 0.000000
vn 0.000000 0.190814 -0.981626
vn 0.000000 0.190814 -0.981626
vn 0.000000 0.190815 -0.981626
vn 0.000000 0.190815 -0.981626
vn 0.000000 0.190814 -0.981626
vn 0.000000 0.190814 -0.981626
vn 0.000000 0.190814 -0.981626
vn 0.000000 0.190814 -0.981626
vn 0.000000 0.190814 -0.981626
vn 0.000000 0.190814 -0.981626
vn 0.000000 0.190814 -0.981626
vn 0.000000 0.190814 -0.981626
vn 0.000000 -1.000000 0.000000
vn 0.000000 -1.000000 0.000000
vn 0.000000 -1.000000 0.000000
vn 0.000000 -1.000000 0.000000
vn -0.000000 -0.190814 0.981626
vn -0.000000 -0.190815 0.981626
vn -0.000000 -0.190815 0.981626
vn -0.000000 -0.190814 0.981626
vn -0.000000 -0.190814 0.981626
vn -0.000000 -0.190814 0.981626
vn -0.000000 -0.190814 0.981626
vn -0.000000 -0.190814 0.981626
vn 1.000000 0.000000 0.000000
vn 1.000000 0.000000 0.000000
vn 1.000000 0.000000 0.000000
vn 1.000000 0.000000 0.000000
vn -1.000000 0.000000 -0.000000
vn -1.000000 0.000000 -0.000000
vn -1.000000 0.000000 -0.000000
vn -1.000000 0.000000 -0.000000
vn -0.000001 -1.000000 -0.000000
vn -0.000001 -1.000000 -0.000000
vn -0.000001 -1.000000 -0.000000
vn -0.000001 -1.000000 -0.000000
vn 1.000000 0.000000 0.000000
vn 1.000000 0.000000 0.000000
vn 1.000000 0.000000 0.000000
vn 1.000000 0.000000 0.000000
vn 0.000000 1.000000 0.000000
vn 0.000000 1.000000 0.000000
vn 0.000000 1.000000 0.000000
vn 0.000000 1.000000 0.000000
vn -1.000000 0.000000 -0.000000
vn -1.000000 0.000000 -0.000000
vn -1.000000 0.000000 -0.000000
vn -1.000000 0.000000 -0.000000
vn -0.000000 0.190814 0.981626
vn -0.000000 0.190814 0.981626
vn -0.000000 0.190815 0.981626
vn -0.000000 0.190815 0.981626
vn 1.000000 0.000000 0.000000
vn 1.000000 0.000000 0.000000
vn 1.000000 0.000000 0.000000
vn 1.000000 0.000000 0.000000
vn -0.000000 0.190814 0.981626
vn -0.000000 0.190814 0.981626
vn -0.000000 0.190814 0.981626
vn -0.000000 0.190814 0.981626
vn -1.000000 0.000000 -0.000000
vn -1.000000 0.000000 -0.000000
vn -1.000000 0.000000 -0.000000
vn -1.000000 0.000000 -0.000000
vn 0.000000 -0.190814 -0.981626
vn 0.000000 -0.190814 -0.981626
vn 0.000000 -0.190814 -0.981626
vn 0.000000 -0.190814 -0.981626
vn 0.000000 -1.000000 0.000000
vn 0.000000 -1.000000 0.000000
vn 0.000000 -1.000000 0.000000
vn 0.000000 -1.000000 0.000000
vn 1.000000 0.000000 0.000000
vn 1.000000 0.000000 0.000000
vn 1.000000 0.000000 0.000000
vn 1.000000 0.000000 0.000000
vn 0.000000 1.000000 0.000000
vn 0.000000 1.000000 0.000000
vn 0.000000 1.000000 0.000000
vn 0.000000 1.000000 0.000000
vn -1.000000 0.000000 -0.000000
vn -1.000000 0.000000 -0.000000
vn -1.000000 0.000000 -0.000000
vn -1.000000 0.000000 -0.000000
vn 1.000000 0.000000 0.000000
vn 1.000000 0.000000 0.000000
vn 1.000000 0.000000 0.000000
vn 1.000000 0.000000 0.000000
vn -1.000000 0.000000 -0.000000
vn -1.000000 0.000000 -0.000000
vn -1.000000 0.000000 -0.000000
vn -1.000000 0.000000 -0.000000
vn 0.000000 -1.000000 0.000000
vn 0.000000 -1.000000 0.000000
vn -0.000001 -1.000000 -0.000000
vn -0.000001 -1.000000 -0.000000
vn 0.000000 -0.190814 -0.981626
vn 0.000000 -0.190814 -0.981626
vn 0.000000 -0.190814 -0.981626
vn 0.000000 -0.190814 -0.981626
vn 0.000000 -0.190814 -0.981626
vn 0.000000 -0.190814 -0.981626
vn 0.000000 -0.190814 -0.981626
vn 0.000000 -0.190814 -0.981626
vn 0.000000 -1.000000 0.000000
vn 0.000000 -1.000000 0.000000
vn 0.000000 -1.000000 0.000000
vn 0.000000 -1.000000 0.000000
vn -0.000000 0.190814 0.981626
vn -0.000000 0.190814 0.981626
vn -0.000000 0.190813 0.981626
vn -0.000000 0.190813 0.981626
vn -0.000000 0.190814 0.981626
vn -0.000000 0.190814 0.981626
vn -0.000000 0.190814 0.981626
vn -0.000000 0.190814 0.981626
vn -0.000000 0.190815 0.981626
vn -0.000000 0.190815 0.981626
vn -0.000000 0.190814 0.981626
vn -0.000000 0.190814 0.981626
vn 0.000000 1.000000 0.000000
vn 0.000000 1.000000 0.000000
vn 0.000000 1.000000 0.000000
vn 0.000000 1.000000 0.000000
vn 0.000000 1.000000 0.000000
vn 0.000000 1.000000 0.000000
vn 0.000000 1.000000 0.000000
vn 0.000000 1.000000 0.000000
vn 0.000000 1.000000 0.000000
vn 0.000000 1.000000 0.000000
vn 0.000000 1.000000 0.000000
vn 0.000000 1.000000 0.000000
vn 0.000000 1.000000 0.000000
vn 0.000000 1.000000 0.000000
vn 0.000000 1.000000 0.000000
vn 0.000000 1.000000 0.000000
vn -0.000000 0.190814 0.981626
vn -0.000000 0.190815 0.981626
vn -0.000000 0.190815 0.981626
vn -0.000000 0.190814 0.981626
vn -0.000000 0.190814 0.981626
vn -0.000000 0.190814 0.981626
vn -0.000000 0.190814 0.981626
vn -0.000000 0.190814 0.981626
vn -0.000000 0.190814 0.981626
vn -0.000000 0.190814 0.981626
vn -0.000000 0.190814 0.981626
vn -0.000000 0.190814 0.981626
vn 0.000000 -1.000000 0.000000
vn 0.000000 -1.000000 0.000000
vn 0.000000 -1.000000 0.000000
vn 0.000000 -1.000000 0.000000
vn 0.000000 -0.190814 -0.981626
vn 0.000000 -0.190814 -0.981626
vn 0.000000 -0.190814 -0.981626
vn 0.000000 -0.190814 -0.981626
vn 0.000000 -0.190814 -0.981626
vn 0.000000 -0.190814 -0.981626
vn 0.000000 -0.190814 -0.981626
vn 0.000000 -0.190814 -0.981626
vn 0.000000 -1.000000 0.000000
vn 0.000000 -1.000000 0.000000
vn 0.000000 -1.000000 0.000000
vn 0.000000 -1.000000 0.000000
vn 1.000000 0.000000 0.000000
vn 1.000000 0.000000 0.000000
vn 1.000000 0.000000 0.000000
vn 1.000000 0.000000 0.000000
vn -1.000000 0.000000 -0.000000
vn -1.000000 0.000000 -0.000000
vn -1.000000 0.000000 -0.000000
vn -1.000000 0.000000 -0.000000
vn -0.000001 -1.000000 -0.000000
vn -0.000001 -1.000000 -0.000000
vn -0.000001 -1.000000 -0.000000
vn -0.000001 -1.000000 -0.000000
s off
g initialShadingGroup pCube3
f 9/1/1 10/2/2 4/3/3 3/4/4
f 23/5/5 24/6/6 25/7/7 26/8/8
f 5/9/9 6/10/10 11/11/11 12/12/12
f 22/13/13 23/14/14 26/15/15 27/16/16
f 13/17/17 14/18/18 10/2/19 9/1/20
f 21/19/21 22/13/22 27/16/23 28/20/24
f 12/12/25 11/11/26 15/21/27 16/22/28
f 32/23/29 17/24/30 18/25/31 31/26/32
f 1/27/33 2/28/34 14/18/35 13/17/36
f 16/22/37 15/21/38 8/29/39 7/30/40
f 16/31/41 18/25/42 17/24/43 12/32/44
f 7/33/45 19/34/46 18/25/47 16/31/48
f 7/35/49 8/36/50 20/37/51 19/38/52
f 21/19/53 20/39/54 8/40/55 15/41/56
f 22/13/57 21/19/58 15/41/59 11/42/60
f 23/14/61 22/13/62 11/42/63 6/43/64
f 24/6/65 23/5/66 6/44/67 5/45/68
f 3/46/69 4/47/70 26/8/71 25/7/72
f 10/48/73 27/16/74 26/15/75 4/49/76
f 14/50/77 28/20/78 27/16/79 10/48/80
f 2/51/81 29/52/82 28/20/83 14/50/84
f 30/53/85 29/54/86 2/55/87 1/56/88
f 31/26/89 30/57/90 1/58/91 13/59/92
f 32/23/93 31/26/94 13/59/95 9/60/96
f 18/61/97 19/38/98 20/37/99 21/62/100
f 28/63/101 29/54/102 30/53/103 31/64/104
f 31/64/105 18/61/106 21/62/107 28/63/108
f 41/65/109 35/66/110 36/67/111 42/68/112
f 55/69/113 58/70/114 57/71/115 56/72/116
f 37/73/117 44/74/118 43/75/119 38/76/120
f 54/77/121 59/78/122 58/79/123 55/80/124
f 45/81/125 41/65/126 42/68/127 46/82/128
f 53/83/129 60/84/130 59/78/131 54/77/132
f 44/74/133 48/85/134 47/86/135 43/75/136
f 64/87/137 63/88/138 50/89/139 49/90/140
f 32/91/141 64/92/142 49/93/143 17/94/144
f 3/95/145 35/96/146 41/97/147 9/98/148
f 24/6/149 56/72/150 57/71/151 25/7/152
f 12/99/153 44/100/154 37/101/155 5/102/156
f 33/103/157 45/81/158 46/82/159 34/104/160
f 48/85/161 39/105/162 40/106/163 47/86/164
f 17/94/165 49/93/166 44/107/167 12/108/168
f 48/109/169 44/110/170 49/90/171 50/89/172
f 39/111/173 48/109/174 50/89/175 51/112/176
f 39/113/177 51/114/178 52/115/179 40/116/180
f 53/83/181 47/117/182 40/118/183 52/119/184
f 54/77/185 43/120/186 47/117/187 53/83/188
f 55/80/189 38/121/190 43/120/191 54/77/192
f 56/72/193 37/122/194 38/123/195 55/69/196
f 5/45/197 37/122/198 56/72/199 24/6/200
f 25/7/201 57/71/202 35/124/203 3/46/204
f 35/124/205 57/71/206 58/70/207 36/125/208
f 42/126/209 36/127/210 58/79/211 59/78/212
f 46/128/213 42/126/214 59/78/215 60/84/216
f 34/129/217 46/128/218 60/84/219 61/130/220
f 62/131/221 33/132/222 34/133/223 61/134/224
f 63/88/225 45/135/226 33/136/227 62/137/228
f 64/87/229 41/138/230 45/135/231 63/88/232
f 9/139/233 41/140/234 64/92/235 32/91/236
f 50/141/237 53/142/238 52/115/239 51/114/240
f 60/143/241 63/144/242 62/131/243 61/134/244
f 63/144/245 60/143/246 53/142/247 50/141/248
